<svg xmlns="http://www.w3.org/2000/svg" xmlns:xlink="http://www.w3.org/1999/xlink" viewBox="0 0 645.62 471.66"><defs><style>.cls-1{fill:none;}.cls-2{clip-path:url(#clip-path);}.cls-3{fill:#01306d;}</style><clipPath id="clip-path" transform="translate(-11.46 -12.79)"><rect class="cls-1" x="114.92" y="-93.98" width="433.03" height="646.23" transform="matrix(0.04, -1, 1, 0.04, 89.36, 551.23)"/></clipPath></defs><title>familyAsset 1</title><g id="Layer_2" data-name="Layer 2"><g id="Layer_1-2" data-name="Layer 1"><g class="cls-2"><path class="cls-3" d="M340,12.79,11.46,144.23l317.11,157L597.35,193.69l-6.57,166.09,58.69,2.33,7.61-192.31Z" transform="translate(-11.46 -12.79)"/></g><path class="cls-3" d="M594,380.48a7.14,7.14,0,0,1-1.45-2.4,21,21,0,0,1-1.14-3.91,38.64,38.64,0,0,1-.66-4.9,41.7,41.7,0,0,1-.06-5.11,29.85,29.85,0,0,1,.52-4.57,12.87,12.87,0,0,1,1-3.29,2.85,2.85,0,0,1,1.4-1.55L644.3,336a1.43,1.43,0,0,1,1.54.47,6.66,6.66,0,0,1,1.45,2.36,21.9,21.9,0,0,1,1.14,4,38.72,38.72,0,0,1,.66,4.9,43.62,43.62,0,0,1,.06,5.11,30.58,30.58,0,0,1-.52,4.53,13.85,13.85,0,0,1-1,3.32,2.84,2.84,0,0,1-1.4,1.52l-50.6,18.74A1.44,1.44,0,0,1,594,380.48Z" transform="translate(-11.46 -12.79)"/><path class="cls-3" d="M388.12,327.62a4.6,4.6,0,0,1-1.78-1.52,9.68,9.68,0,0,1-1.38-2.71,16.25,16.25,0,0,1-.8-3.53,19.34,19.34,0,0,1-.08-3.8,15.44,15.44,0,0,1,.64-3.5,8.72,8.72,0,0,1,1.28-2.65,3.77,3.77,0,0,1,1.7-1.41l61.73-23.36a2.43,2.43,0,0,1,1.89.06,4.46,4.46,0,0,1,1.77,1.49,10.32,10.32,0,0,1,1.39,2.74,17.31,17.31,0,0,1,.8,3.52,20.2,20.2,0,0,1,.08,3.81,15.72,15.72,0,0,1-.65,3.47,9.21,9.21,0,0,1-1.27,2.67,3.89,3.89,0,0,1-1.71,1.4L390,327.65A2.45,2.45,0,0,1,388.12,327.62Z" transform="translate(-11.46 -12.79)"/><path class="cls-3" d="M326.84,484.24a4.55,4.55,0,0,1-1.77-1.51,9.7,9.7,0,0,1-1.39-2.71,16.25,16.25,0,0,1-.8-3.53,19.36,19.36,0,0,1-.08-3.8,15.44,15.44,0,0,1,.64-3.5,8.72,8.72,0,0,1,1.28-2.65,3.79,3.79,0,0,1,1.7-1.42l61.73-23.35a2.35,2.35,0,0,1,1.89.06,4.38,4.38,0,0,1,1.77,1.49,10.25,10.25,0,0,1,1.39,2.73,17.57,17.57,0,0,1,.8,3.53,20.08,20.08,0,0,1,.08,3.8,15.82,15.82,0,0,1-.65,3.48,9.34,9.34,0,0,1-1.27,2.67,3.86,3.86,0,0,1-1.71,1.39l-61.73,23.36A2.45,2.45,0,0,1,326.84,484.24Z" transform="translate(-11.46 -12.79)"/><path class="cls-3" d="M446.69,441.07a4.5,4.5,0,0,1-1.77-1.52,9.43,9.43,0,0,1-1.39-2.71,16.25,16.25,0,0,1-.8-3.53,19.34,19.34,0,0,1-.08-3.8,15.44,15.44,0,0,1,.64-3.5,8.72,8.72,0,0,1,1.28-2.65,3.76,3.76,0,0,1,1.7-1.41L508,398.59a2.43,2.43,0,0,1,1.89.06,4.46,4.46,0,0,1,1.77,1.49,10.17,10.17,0,0,1,1.39,2.74,17.31,17.31,0,0,1,.8,3.52,20.1,20.1,0,0,1,.08,3.8,15.71,15.71,0,0,1-.65,3.48,9.21,9.21,0,0,1-1.27,2.67,3.86,3.86,0,0,1-1.71,1.39L448.57,441.1A2.45,2.45,0,0,1,446.69,441.07Z" transform="translate(-11.46 -12.79)"/><path class="cls-3" d="M506.43,283a4.53,4.53,0,0,1-1.78-1.52,9.68,9.68,0,0,1-1.38-2.71,16.25,16.25,0,0,1-.8-3.53,18.6,18.6,0,0,1-.08-3.8,15.44,15.44,0,0,1,.64-3.5,8.5,8.5,0,0,1,1.28-2.65,3.77,3.77,0,0,1,1.7-1.41l61.73-23.36a2.44,2.44,0,0,1,1.89.06A4.46,4.46,0,0,1,571.4,242a10.17,10.17,0,0,1,1.39,2.74,17.31,17.31,0,0,1,.8,3.52,20.1,20.1,0,0,1,.08,3.8,15.71,15.71,0,0,1-.65,3.48,9.21,9.21,0,0,1-1.27,2.67,4,4,0,0,1-1.71,1.4L508.31,283A2.45,2.45,0,0,1,506.43,283Z" transform="translate(-11.46 -12.79)"/><path class="cls-3" d="M278.22,320.07l-58.87-29.63a3.87,3.87,0,0,1-1.55-1.56,9.22,9.22,0,0,1-1-2.79,15.29,15.29,0,0,1-.27-3.53,19.86,19.86,0,0,1,.49-3.77,17.16,17.16,0,0,1,1.17-3.42,10.27,10.27,0,0,1,1.67-2.58,4.55,4.55,0,0,1,1.93-1.3,2.4,2.4,0,0,1,1.88.14l58.87,29.63a3.78,3.78,0,0,1,1.55,1.59,8.36,8.36,0,0,1,1,2.76,15,15,0,0,1,.26,3.55,18.71,18.71,0,0,1-.48,3.77,16.3,16.3,0,0,1-1.18,3.43,9.53,9.53,0,0,1-1.66,2.55,4.64,4.64,0,0,1-1.93,1.32A2.45,2.45,0,0,1,278.22,320.07Z" transform="translate(-11.46 -12.79)"/><path class="cls-3" d="M324.41,484.09l-58.88-29.63A3.93,3.93,0,0,1,264,452.9a9.5,9.5,0,0,1-1-2.79,15.83,15.83,0,0,1-.27-3.52,20,20,0,0,1,.49-3.78,17.16,17.16,0,0,1,1.17-3.42,10,10,0,0,1,1.68-2.57,4.29,4.29,0,0,1,1.92-1.3,2.4,2.4,0,0,1,1.88.13l58.88,29.64a3.73,3.73,0,0,1,1.54,1.58,8.65,8.65,0,0,1,1,2.77,16,16,0,0,1,.26,3.54,19.38,19.38,0,0,1-.49,3.77,16.3,16.3,0,0,1-1.18,3.43,9.53,9.53,0,0,1-1.66,2.55,4.49,4.49,0,0,1-1.93,1.32A2.39,2.39,0,0,1,324.41,484.09Z" transform="translate(-11.46 -12.79)"/><path class="cls-3" d="M166.66,264.19l-58.91-29.65A3.87,3.87,0,0,1,106.2,233a9.22,9.22,0,0,1-1-2.79,15.29,15.29,0,0,1-.27-3.53,20.69,20.69,0,0,1,.48-3.77,17.16,17.16,0,0,1,1.18-3.42,10.27,10.27,0,0,1,1.67-2.58,4.55,4.55,0,0,1,1.93-1.3,2.4,2.4,0,0,1,1.88.14L171,245.38a3.73,3.73,0,0,1,1.54,1.58,8.65,8.65,0,0,1,1,2.77,14.9,14.9,0,0,1,.26,3.54,18.14,18.14,0,0,1-.49,3.78,16.39,16.39,0,0,1-1.17,3.42,9.8,9.8,0,0,1-1.67,2.55,4.55,4.55,0,0,1-1.93,1.33A2.48,2.48,0,0,1,166.66,264.19Z" transform="translate(-11.46 -12.79)"/><path class="cls-3" d="M214.84,427.73,156,398.1a3.93,3.93,0,0,1-1.55-1.56,9.5,9.5,0,0,1-1-2.79,15.89,15.89,0,0,1-.26-3.53,20.69,20.69,0,0,1,.48-3.77,17.16,17.16,0,0,1,1.18-3.42,10.27,10.27,0,0,1,1.67-2.58,4.49,4.49,0,0,1,1.93-1.3,2.38,2.38,0,0,1,1.87.14l58.88,29.63a3.83,3.83,0,0,1,1.55,1.59,8.84,8.84,0,0,1,1,2.76,15,15,0,0,1,.26,3.55,18.71,18.71,0,0,1-.48,3.77,16.88,16.88,0,0,1-1.18,3.43,9.55,9.55,0,0,1-1.67,2.55,4.52,4.52,0,0,1-1.93,1.32A2.43,2.43,0,0,1,214.84,427.73Z" transform="translate(-11.46 -12.79)"/><path class="cls-3" d="M99.54,370.82,40.66,341.18a3.87,3.87,0,0,1-1.55-1.56,9.4,9.4,0,0,1-1-2.79,15.83,15.83,0,0,1-.27-3.52,19.75,19.75,0,0,1,.49-3.77,17,17,0,0,1,1.17-3.43,10.4,10.4,0,0,1,1.68-2.57,4.29,4.29,0,0,1,1.92-1.3,2.4,2.4,0,0,1,1.88.13L103.88,352a3.73,3.73,0,0,1,1.54,1.58,8.65,8.65,0,0,1,1,2.77,16.12,16.12,0,0,1,.26,3.55,18.83,18.83,0,0,1-.49,3.77A16.78,16.78,0,0,1,105,367.1a9.8,9.8,0,0,1-1.67,2.55,4.52,4.52,0,0,1-1.93,1.33A2.48,2.48,0,0,1,99.54,370.82Z" transform="translate(-11.46 -12.79)"/><path class="cls-3" d="M576,251.2l-4.17,135.08a13.06,13.06,0,0,1-.71,3.9,11.22,11.22,0,0,1-1.84,3.27,8,8,0,0,1-2.62,2.12,6.52,6.52,0,0,1-3.06.67,6.4,6.4,0,0,1-3-.91,8.23,8.23,0,0,1-2.51-2.32,11.11,11.11,0,0,1-1.61-3.4,12.45,12.45,0,0,1-.48-3.95l4.17-135.08a12.37,12.37,0,0,1,.73-3.9,10.2,10.2,0,0,1,1.82-3.27,7.69,7.69,0,0,1,2.64-2.12,6.18,6.18,0,0,1,3-.67,6.31,6.31,0,0,1,3,.91,7.81,7.81,0,0,1,2.49,2.32,11,11,0,0,1,1.62,3.4A13,13,0,0,1,576,251.2Z" transform="translate(-11.46 -12.79)"/><path class="cls-3" d="M517.79,274.91,513.62,410a13,13,0,0,1-.71,3.9,11,11,0,0,1-1.84,3.27,7.87,7.87,0,0,1-2.62,2.12,6.51,6.51,0,0,1-3.05.67,6.4,6.4,0,0,1-3-.91,8.22,8.22,0,0,1-2.51-2.32,10.76,10.76,0,0,1-1.6-3.4,12.46,12.46,0,0,1-.49-3.95L502,274.29a12.66,12.66,0,0,1,.73-3.9,10.39,10.39,0,0,1,1.82-3.27,7.64,7.64,0,0,1,2.64-2.11,6.09,6.09,0,0,1,3.06-.68,6.31,6.31,0,0,1,3,.91,7.81,7.81,0,0,1,2.49,2.32,11,11,0,0,1,1.62,3.41A12.57,12.57,0,0,1,517.79,274.91Z" transform="translate(-11.46 -12.79)"/><path class="cls-3" d="M458.62,295.85l-4.18,135.08a13,13,0,0,1-.71,3.9,11.2,11.2,0,0,1-1.83,3.27,8.13,8.13,0,0,1-2.63,2.12,6.51,6.51,0,0,1-3,.67,6.36,6.36,0,0,1-3-.91,8.23,8.23,0,0,1-2.51-2.32,10.57,10.57,0,0,1-1.61-3.4,12.75,12.75,0,0,1-.49-3.95l4.18-135.08a12.37,12.37,0,0,1,.73-3.9,10.18,10.18,0,0,1,1.81-3.27A7.67,7.67,0,0,1,448,286a6.08,6.08,0,0,1,3-.68,6.27,6.27,0,0,1,3,.91,7.81,7.81,0,0,1,2.49,2.32,11,11,0,0,1,1.63,3.4A13.29,13.29,0,0,1,458.62,295.85Z" transform="translate(-11.46 -12.79)"/><path class="cls-3" d="M398.52,318.57l-4.14,133.91a12.51,12.51,0,0,1-.71,3.87,11,11,0,0,1-1.83,3.25,7.87,7.87,0,0,1-2.62,2.09,6.24,6.24,0,0,1-6.06-.23,8.28,8.28,0,0,1-2.51-2.3,10.67,10.67,0,0,1-1.61-3.38,12.46,12.46,0,0,1-.49-3.91L382.69,318a12.08,12.08,0,0,1,.73-3.87,10,10,0,0,1,1.81-3.24,7.82,7.82,0,0,1,2.64-2.1,6.1,6.1,0,0,1,3.06-.66,6.29,6.29,0,0,1,3,.9,7.82,7.82,0,0,1,2.49,2.29,10.94,10.94,0,0,1,1.63,3.38A13.05,13.05,0,0,1,398.52,318.57Z" transform="translate(-11.46 -12.79)"/><path class="cls-3" d="M287.51,310.76l-9.28,134.83a13.27,13.27,0,0,1-.86,3.87,11.22,11.22,0,0,1-2,3.2,7.85,7.85,0,0,1-2.7,2,6.21,6.21,0,0,1-6-.46,8.14,8.14,0,0,1-2.41-2.41,10.53,10.53,0,0,1-1.48-3.46,12.46,12.46,0,0,1-.34-4l9.29-134.83a12.47,12.47,0,0,1,.87-3.87,10.38,10.38,0,0,1,1.94-3.2,7.67,7.67,0,0,1,2.72-2,6.13,6.13,0,0,1,3.08-.56,6.29,6.29,0,0,1,3,1,7.84,7.84,0,0,1,2.4,2.4,10.85,10.85,0,0,1,1.49,3.47A12.7,12.7,0,0,1,287.51,310.76Z" transform="translate(-11.46 -12.79)"/><path class="cls-3" d="M231.7,284.05l-9.14,132.84a12.86,12.86,0,0,1-.85,3.82,11.09,11.09,0,0,1-2,3.15,7.92,7.92,0,0,1-2.7,2,6.33,6.33,0,0,1-6-.46,8.06,8.06,0,0,1-2.42-2.38,10.36,10.36,0,0,1-1.48-3.41,12.18,12.18,0,0,1-.35-3.91l9.15-132.83a11.83,11.83,0,0,1,.87-3.82,10.22,10.22,0,0,1,1.93-3.15,7.7,7.7,0,0,1,2.72-2,6.35,6.35,0,0,1,6,.46,8,8,0,0,1,2.4,2.37,10.81,10.81,0,0,1,1.5,3.42A12.35,12.35,0,0,1,231.7,284.05Z" transform="translate(-11.46 -12.79)"/><path class="cls-3" d="M174.09,253.89,164.8,388.72a13.12,13.12,0,0,1-.85,3.87,11.14,11.14,0,0,1-2,3.21,8.11,8.11,0,0,1-2.7,2,6.68,6.68,0,0,1-3.08.56,6.48,6.48,0,0,1-3-1,8.17,8.17,0,0,1-2.42-2.41,10.61,10.61,0,0,1-1.47-3.46,12.26,12.26,0,0,1-.34-4l9.28-134.82a12.35,12.35,0,0,1,.88-3.87,10.31,10.31,0,0,1,1.94-3.21,7.79,7.79,0,0,1,2.72-2,6.13,6.13,0,0,1,3.08-.56,6.29,6.29,0,0,1,3,1,7.75,7.75,0,0,1,2.39,2.41,10.81,10.81,0,0,1,1.5,3.46A12.73,12.73,0,0,1,174.09,253.89Z" transform="translate(-11.46 -12.79)"/><path class="cls-3" d="M119.24,226.44,110,361.27a12.89,12.89,0,0,1-.86,3.87,10.85,10.85,0,0,1-2,3.2,7.79,7.79,0,0,1-2.71,2,6.19,6.19,0,0,1-6-.46A8.13,8.13,0,0,1,96,367.5,10.9,10.9,0,0,1,94.49,364a12.46,12.46,0,0,1-.33-4l9.28-134.83a12.48,12.48,0,0,1,.88-3.87,10.19,10.19,0,0,1,1.94-3.2,7.59,7.59,0,0,1,2.72-2,6.13,6.13,0,0,1,3.08-.56,6.22,6.22,0,0,1,3,1,7.74,7.74,0,0,1,2.4,2.4,10.87,10.87,0,0,1,1.5,3.47A13,13,0,0,1,119.24,226.44Z" transform="translate(-11.46 -12.79)"/><path class="cls-3" d="M63.47,198,54.18,332.86a12.82,12.82,0,0,1-.86,3.87,10.9,10.9,0,0,1-2,3.21,8,8,0,0,1-2.71,2,6.19,6.19,0,0,1-6-.46,8.17,8.17,0,0,1-2.42-2.41,10.61,10.61,0,0,1-1.47-3.46,12.26,12.26,0,0,1-.34-4l9.28-134.82a12.48,12.48,0,0,1,.88-3.88,10.38,10.38,0,0,1,1.94-3.2,7.79,7.79,0,0,1,2.72-2,6.13,6.13,0,0,1,3.08-.56,6.29,6.29,0,0,1,3,1,7.85,7.85,0,0,1,2.39,2.41,10.81,10.81,0,0,1,1.5,3.46A13,13,0,0,1,63.47,198Z" transform="translate(-11.46 -12.79)"/></g></g></svg>